<svg xmlns="http://www.w3.org/2000/svg" viewBox="0 0 200 102.0" role="img" aria-label="Modern Colours"><path fill="#8802C9" fill-rule="evenodd" d="M20.5,1.0 27.7,1.0 31.5,1.5 37.7,3.0 44.5,5.5 49.2,7.7 57.2,12.3 62.5,16.2 68.7,21.7 63.7,32.0 62.2,37.3 61.3,42.7 57.2,39.5 51.3,36.3 45.5,34.7 39.3,34.5 37.0,35.0 34.2,36.5 32.2,39.0 31.0,42.5 31.3,47.5 33.3,53.2 36.8,59.0 38.8,61.0 39.0,61.7 44.5,66.8 50.5,70.8 56.5,73.5 62.5,74.8 68.2,74.8 72.0,80.5 77.3,85.7 82.0,88.7 82.0,89.2 81.5,89.3 77.2,90.2 73.7,90.3 67.5,89.8 58.5,87.8 47.0,83.3 36.2,77.2 27.2,70.5 18.2,61.7 12.3,54.3 7.0,45.8 2.8,36.3 1.0,29.2 0.5,24.7 0.7,20.5 1.5,16.2 3.2,12.0 5.5,8.5 8.5,5.5 11.3,3.7 14.8,2.2 20.5,1.2Z M85.0,42.7 85.7,42.8 86.7,44.5 90.8,53.3 93.2,60.8 94.3,68.2 94.2,75.0 93.2,79.0 92.0,81.3 88.5,79.7 85.5,77.2 83.0,74.2 80.2,68.7 78.7,62.2 78.8,55.3 80.3,50.0 82.8,45.3 85.0,42.8Z"/><path fill="#FEEF03" fill-rule="evenodd" d="M98.2,4.0 103.2,4.2 108.3,5.2 112.3,6.5 116.7,8.7 121.7,12.2 126.3,16.8 130.2,22.0 130.2,22.7 126.2,26.5 126.2,27.0 122.7,30.5 121.7,32.3 120.7,33.0 119.8,34.7 119.2,35.0 117.2,38.3 116.7,38.5 114.3,42.8 110.8,39.7 106.8,37.3 103.0,36.2 98.3,35.8 94.8,36.3 90.8,37.8 87.7,39.8 83.8,43.3 82.0,46.0 79.5,51.2 78.3,56.8 78.3,62.3 79.0,66.2 80.3,70.0 83.7,75.7 88.3,80.0 90.7,81.3 94.8,82.7 101.7,83.0 104.8,82.3 107.0,81.3 107.7,81.5 108.2,82.8 110.5,85.7 111.0,85.7 113.8,88.0 115.7,88.7 115.7,89.2 114.8,89.7 110.3,91.5 110.3,92.2 115.0,93.2 123.5,92.0 133.0,92.0 143.5,93.2 156.8,96.0 167.8,99.5 172.3,101.3 172.3,101.7 150.0,101.7 141.3,99.7 132.2,99.3 130.2,99.7 130.2,100.3 131.7,101.7 105.3,101.7 105.5,100.2 106.8,98.0 106.8,97.3 103.2,96.7 97.0,96.5 92.8,97.2 94.3,101.7 67.5,101.7 67.7,101.2 69.2,100.3 69.2,99.7 67.2,99.3 57.8,99.7 49.3,101.7 27.2,101.7 27.5,101.2 31.3,99.7 41.0,96.5 56.0,93.2 67.3,92.0 75.8,92.0 82.7,93.0 84.5,93.0 88.3,92.2 88.3,91.5 82.5,88.8 82.5,88.5 80.5,87.5 76.5,84.5 71.3,79.2 68.5,74.5 68.0,74.5 67.8,73.7 67.3,73.3 64.5,67.5 62.3,60.5 61.2,52.8 61.3,43.8 63.0,35.3 65.5,28.3 69.5,21.0 73.8,15.5 78.7,11.2 84.7,7.5 93.0,4.7 98.2,4.2Z M137.0,44.8 137.3,44.8 137.0,56.3 135.8,62.0 133.3,69.2 130.8,74.0 130.2,74.0 127.5,72.2 126.5,70.2 126.0,67.8 126.2,63.0 126.5,63.0 126.7,61.0 127.0,61.0 128.2,57.0 128.5,57.0 129.2,55.0 129.5,55.0 130.2,53.2 131.2,51.5 131.7,51.3 132.2,50.0 133.0,49.5 134.0,47.7 137.0,45.0Z"/><path fill="#EB0102" fill-rule="evenodd" d="M174.0,1.3 180.5,1.5 184.7,2.3 187.7,3.5 191.5,5.8 194.7,9.0 197.2,13.5 198.5,17.7 199.0,21.2 198.5,29.5 197.0,35.5 194.7,41.5 189.7,50.8 184.5,58.0 180.8,62.0 180.7,62.7 174.3,68.8 168.0,74.0 163.0,77.5 155.8,81.7 147.3,85.7 142.2,87.5 135.8,89.2 129.5,90.2 122.3,90.2 118.5,89.5 116.5,88.7 115.5,88.7 115.5,88.3 114.5,88.2 114.5,87.8 113.5,87.7 113.3,87.2 112.0,86.7 111.3,85.7 110.8,85.7 109.5,84.3 108.2,82.0 107.7,81.8 105.7,75.3 105.3,69.5 105.8,64.7 107.3,58.3 109.2,53.2 112.3,46.3 117.2,38.0 117.7,37.8 117.7,37.3 119.2,35.8 119.2,35.3 120.7,33.8 121.7,32.0 122.7,31.3 122.7,30.8 124.2,29.5 124.2,29.0 126.2,27.3 126.2,26.8 130.3,22.7 140.0,14.7 151.5,7.7 162.3,3.3 168.7,1.8 174.0,1.5Z M157.3,34.7 161.0,34.8 165.0,36.5 167.5,39.5 168.5,43.2 168.0,48.5 166.8,52.0 163.7,57.7 160.0,62.2 155.0,66.8 150.7,69.8 145.5,72.5 139.2,74.5 133.0,74.8 128.8,73.3 127.5,72.0 126.5,70.0 126.3,67.8 126.0,67.8 126.5,62.0 126.8,62.0 128.0,57.5 128.3,57.5 130.0,53.5 134.0,47.8 139.8,42.0 144.5,38.8 149.2,36.5 152.5,35.3 157.3,34.8Z"/></svg>